<?xml version="1.0" encoding="UTF-8"?>
<svg width="13px" height="24px" viewBox="0 0 13 24" version="1.1" xmlns="http://www.w3.org/2000/svg" xmlns:xlink="http://www.w3.org/1999/xlink">
    <!-- Generator: Sketch 43.1 (39012) - http://www.bohemiancoding.com/sketch -->
    <title>Donate-Grey</title>
    <desc>Created with Sketch.</desc>
    <defs></defs>
    <g id="Page-1" stroke="none" stroke-width="1" fill="none" fill-rule="evenodd">
        <g id="Donate-Grey" fill-rule="nonzero" fill="#61BB9B">
            <path d="M7.0109409,21.1115974 C10.1356674,20.8752735 12.0787746,18.8533917 12.3676149,16.4113786 C12.7352298,13.5229759 10.9234136,11.6061269 7.536105,10.7396061 L5.1728665,10.1619256 C2.88840263,9.61050328 2.59956236,8.42888403 2.59956236,7.64113786 C2.59956236,5.9868709 4.2275711,4.91028446 5.9868709,4.91028446 C7.9562363,4.91028446 9.4004376,6.06564551 9.4004376,7.87746171 L11.8424508,7.87746171 C11.8424508,4.96280088 9.8205689,3.01969365 7.0109409,2.65207877 L7.0109409,0 L5.3829322,0 L5.3829322,2.62582057 C2.57330416,2.88840263 0.15754923,4.83150985 0.15754923,7.66739606 C0.15754923,9.2428884 0.73522976,11.4223195 4.5689278,12.3938731 L6.9059081,12.9715536 C8.5339168,13.3129103 10.1356674,14.2844639 9.9781182,16.2013129 C9.7680525,17.5667396 8.6389497,18.8533917 6.3282276,18.8533917 C4.0437637,18.8533917 2.46827133,17.2253829 2.44201313,15.6498906 L0,15.6498906 C0,18.249453 2.17943107,20.6914661 5.3829322,21.0853392 L5.3829322,24 L7.0109409,24 L7.0109409,21.1115974 Z" id="$-copy"></path>
        </g>
    </g>
</svg>