<?xml version="1.0" encoding="UTF-8"?>
<svg width="13px" height="24px" viewBox="0 0 13 24" version="1.1" xmlns="http://www.w3.org/2000/svg" xmlns:xlink="http://www.w3.org/1999/xlink">
    <!-- Generator: Sketch 43.1 (39012) - http://www.bohemiancoding.com/sketch -->
    <title>Icon/Account Copy 2</title>
    <desc>Created with Sketch.</desc>
    <defs></defs>
    <g id="Symbols" stroke="none" stroke-width="1" fill="none" fill-rule="evenodd">
        <g id="Nav/Fixed_D" transform="translate(-1382.000000, -24.000000)" fill="#474747">
            <g id="Group-2">
                <g transform="translate(1376.000000, 24.000000)">
                    <g id="Icon/Donate-Grey">
                        <path d="M13.0109409,21.1115974 C16.1356674,20.8752735 18.0787746,18.8533917 18.3676149,16.4113786 C18.7352298,13.5229759 16.9234136,11.6061269 13.536105,10.7396061 L11.1728665,10.1619256 C8.88840263,9.61050328 8.59956236,8.42888403 8.59956236,7.64113786 C8.59956236,5.9868709 10.2275711,4.91028446 11.9868709,4.91028446 C13.9562363,4.91028446 15.4004376,6.06564551 15.4004376,7.87746171 L17.8424508,7.87746171 C17.8424508,4.96280088 15.8205689,3.01969365 13.0109409,2.65207877 L13.0109409,0 L11.3829322,0 L11.3829322,2.62582057 C8.57330416,2.88840263 6.15754923,4.83150985 6.15754923,7.66739606 C6.15754923,9.2428884 6.73522976,11.4223195 10.5689278,12.3938731 L12.9059081,12.9715536 C14.5339168,13.3129103 16.1356674,14.2844639 15.9781182,16.2013129 C15.7680525,17.5667396 14.6389497,18.8533917 12.3282276,18.8533917 C10.0437637,18.8533917 8.46827133,17.2253829 8.44201313,15.6498906 L6,15.6498906 C6,18.249453 8.17943107,20.6914661 11.3829322,21.0853392 L11.3829322,24 L13.0109409,24 L13.0109409,21.1115974 Z" id="$-copy"></path>
                    </g>
                </g>
            </g>
        </g>
    </g>
</svg>