<?xml version="1.0" encoding="UTF-8"?>
<svg width="20px" height="24px" viewBox="0 0 20 24" version="1.1" xmlns="http://www.w3.org/2000/svg" xmlns:xlink="http://www.w3.org/1999/xlink">
    <!-- Generator: Sketch 43.1 (39012) - http://www.bohemiancoding.com/sketch -->
    <title>Volunteer-Grey</title>
    <desc>Created with Sketch.</desc>
    <defs></defs>
    <g id="Page-1" stroke="none" stroke-width="1" fill="none" fill-rule="evenodd">
        <g id="Volunteer-Grey" fill-rule="nonzero" fill="#E5715E">
            <path d="M6.84211913,2.12060381 L3.34360758,2.28709924 L2.57119524,5.70341684 L0,8.08071867 L1.60383572,11.1935509 L1.16019916,14.6678258 L4.39105351,16.0208646 L5.41426276,17.6131089 L5.41426276,24 L5.41637029,24 L9.6293369,22.6891119 L13.8412498,24 L13.8444111,24 L13.8444111,17.6131089 L14.8676203,16.0208646 L18.0984747,14.6678258 L17.6537843,11.1935509 L19.2597276,8.08071867 L16.6864248,5.70341684 L15.9140125,2.28709924 L12.4155009,2.12060381 L9.6293369,0.000421507416 L6.84211913,2.12060381 Z M6.16454596,14.8817408 L5.80942596,14.3306199 L5.20561659,14.0766617 L3.45425327,13.3442925 L3.6945125,11.4601544 L3.77776021,10.8099792 L3.47743618,10.2272452 L2.60702337,8.53910798 L4.00221291,7.2524566 L4.48378514,6.80776627 L4.62709766,6.16812877 L5.04544377,4.31560368 L6.94222714,4.22603335 L7.5966174,4.1944203 L8.1182328,3.79714956 L9.6293369,2.64748808 L11.140441,3.79714956 L11.6610027,4.1944203 L12.3153929,4.22603335 L14.2132301,4.31560368 L14.6305224,6.16812877 L14.7748887,6.80776627 L15.2564609,7.2524566 L16.6516505,8.53910798 L15.7801839,10.2272452 L15.4798598,10.8099792 L15.5631076,11.4601544 L15.8033668,13.3442925 L14.0530572,14.0766617 L13.4481941,14.3306199 L13.0941279,14.8817408 L12.0677573,16.4792539 L10.2542217,15.914434 L9.6293369,15.7205406 L9.0033984,15.914434 L7.18986275,16.4792539 L6.16454596,14.8817408 Z M7.52074607,18.5836297 L9.6293369,17.9260781 L11.736874,18.5836297 L11.736874,21.1379646 L10.2542217,20.676414 L9.6293369,20.4835744 L9.0033984,20.676414 L7.52074607,21.1379646 L7.52074607,18.5836297 Z" id="Page-1"></path>
        </g>
    </g>
</svg>