<?xml version="1.0" encoding="UTF-8"?>
<svg width="24px" height="24px" viewBox="0 0 24 24" version="1.1" xmlns="http://www.w3.org/2000/svg" xmlns:xlink="http://www.w3.org/1999/xlink">
    <!-- Generator: Sketch 43.1 (39012) - http://www.bohemiancoding.com/sketch -->
    <title>Icon/Volunteer-Grey</title>
    <desc>Created with Sketch.</desc>
    <defs></defs>
    <g id="Symbols" stroke="none" stroke-width="1" fill="none" fill-rule="evenodd">
        <g id="Icon/Volunteer-Grey" fill="#444444">
            <path d="M8.84211913,2.12060381 L5.34360758,2.28709924 L4.57119524,5.70341684 L2,8.08071867 L3.60383572,11.1935509 L3.16019916,14.6678258 L6.39105351,16.0208646 L7.41426276,17.6131089 L7.41426276,24 L7.41637029,24 L11.6293369,22.6891119 L15.8412498,24 L15.8444111,24 L15.8444111,17.6131089 L16.8676203,16.0208646 L20.0984747,14.6678258 L19.6537843,11.1935509 L21.2597276,8.08071867 L18.6864248,5.70341684 L17.9140125,2.28709924 L14.4155009,2.12060381 L11.6293369,0.000421507416 L8.84211913,2.12060381 Z M8.16454596,14.8817408 L7.80942596,14.3306199 L7.20561659,14.0766617 L5.45425327,13.3442925 L5.6945125,11.4601544 L5.77776021,10.8099792 L5.47743618,10.2272452 L4.60702337,8.53910798 L6.00221291,7.2524566 L6.48378514,6.80776627 L6.62709766,6.16812877 L7.04544377,4.31560368 L8.94222714,4.22603335 L9.5966174,4.1944203 L10.1182328,3.79714956 L11.6293369,2.64748808 L13.140441,3.79714956 L13.6610027,4.1944203 L14.3153929,4.22603335 L16.2132301,4.31560368 L16.6305224,6.16812877 L16.7748887,6.80776627 L17.2564609,7.2524566 L18.6516505,8.53910798 L17.7801839,10.2272452 L17.4798598,10.8099792 L17.5631076,11.4601544 L17.8033668,13.3442925 L16.0530572,14.0766617 L15.4481941,14.3306199 L15.0941279,14.8817408 L14.0677573,16.4792539 L12.2542217,15.914434 L11.6293369,15.7205406 L11.0033984,15.914434 L9.18986275,16.4792539 L8.16454596,14.8817408 Z M9.52074607,18.5836297 L11.6293369,17.9260781 L13.736874,18.5836297 L13.736874,21.1379646 L12.2542217,20.676414 L11.6293369,20.4835744 L11.0033984,20.676414 L9.52074607,21.1379646 L9.52074607,18.5836297 Z" id="Page-1"></path>
        </g>
    </g>
</svg>